# xmcd
# 
# Track frame offsets:
#     150
#     21497
#     40445
#     78035
#     98957
#     119220
#     151532
# 
# Disc length: 2253
# 
# Revision: 1
# Processed by: cddbd v1.5.2PL0 Copyright (c) Steve Scherf et al.
# Submitted via: BonkEnc v1.0.6
# 
DISCID=5108cb07
DTITLE=Bobby Hutcherson - Un Poco Loco
DYEAR=1980
DGENRE=Contemporary Jazz
TTITLE0=The Sailor's Song
TTITLE1=Silver Hollow
TTITLE2=Un Poco Loco
TTITLE3=Love Song
TTITLE4=Ivory Coast
TTITLE5=Ebony Moonbeams
TTITLE6=I Wanna Stand Over there
EXTD=
EXTT0=
EXTT1=
EXTT2=
EXTT3=
EXTT4=
EXTT5=
EXTT6=
PLAYORDER=
